#!OML:ASF F:\VICON\USERDATA\INSTALL\rory3\rory3.ASF
:FULLY-SPECIFIED
:DEGREES
70
root 0.8023146558706291 17.79275759555304 39.94519732491058 -2.181059075715523 -1.4584309705833127 2.3320746128280314
lfemur 7.082371966248637 -2.298929899892951 -27.417402146429595
ltibia 14.986954996454159
lfoot -10.48046810387249 0.29728361176518625
ltoes -3.8111613516643295
rfemur -27.73338184251745 -0.30955966833348514 20.17715830634068
rtibia 39.52773712172671
rfoot -5.154231871284461 -13.228334850674766
rtoes 0.25526779897289975
lowerback 9.65326382600751 -0.7511966634237228 -3.1455213214548126
upperback 0.1424442615527121 -1.3478937155056556 0.801794673933125
thorax -5.107284863352832 -0.5953915048549908 2.7515788077982237
lowerneck -16.21914934236448 -2.8063145597007386 -3.394252673916532
upperneck 21.162291022826796 -3.3985736893541367 2.015150774948302
head 9.373354196798944 -1.6595440632220477 0.9964250272413445
lclavicle 1.4427313813536285e-16 2.3490560633802584e-16
lhumerus -25.42845453244911 2.02380035183325 79.05483162734122
lradius 22.87232338552985
lwrist 6.802754766062618
lhand -29.40423724161538 20.628356046384162
lfingers 7.12502
lthumb -2.450855990013963 51.15406017896458
rclavicle 1.4734128805291023e-16 2.3728345048835657e-16
rhumerus -27.727242492888365 -17.55550752192563 -77.13434132022726
rradius 25.307969890343273
rwrist 4.600043487805493
rhand -17.442515047965365 22.932616670217534
rfingers 7.12502
rthumb 8.686815346461918 -6.999770932012555
71
root 0.714479241687342 17.745703767171214 40.72070997045359 -1.4937159048308088 -0.5753931016321554 2.3284547863239444
lfemur 10.955710526411547 -2.4400229985401856 -27.316276219299176
ltibia 11.709410739997999
lfoot -9.654287605045157 -2.0327679649870327
ltoes -5.264632031693243
rfemur -26.922784503659415 3.067072997847072 18.511806584503358
rtibia 26.823941912898775
rfoot -5.841706820724591 -17.956103660498567
rtoes -1.6657413701701933
lowerback 9.28413273452317 -1.1731672258721113 -3.5625383423211296
upperback 0.06669241494241193 -1.9690179364972313 0.892804725116875
thorax -4.866291249267968 -0.9241364864234032 3.2977805211379034
lowerneck -16.34395258971874 -2.804440185230179 -3.4911576288273825
upperneck 21.151543135490357 -3.4013371980824925 2.078278901220181
head 9.389782701198305 -1.6585696000328787 1.0178853451190741
lclavicle 1.4420224701258809e-16 2.3485228606175313e-16
lhumerus -23.874957664031715 0.5628279042048847 78.99120841910603
lradius 24.589210938710487
lwrist 7.240914728012309
lhand -29.430023899329928 20.51078252910867
lfingers 7.12502
lthumb -2.5786527997790856 50.90573637753357
rclavicle 1.4771821464510784e-16 2.3757328918345997e-16
rhumerus -28.348727314655516 -18.410241052538876 -76.46643768966763
rradius 24.133048158644723
rwrist 5.995655708698319
rhand -17.45292961422711 23.122448162264913
rfingers 7.12502
rthumb 8.72188753921627 -6.831481821383956
72
root 0.612168175250208 17.671758855444793 41.4635229635549 -1.710729135969523 -0.3830315322840667 2.238724314551658
lfemur 14.260919566006265 -3.0528894684876273 -27.286454214377727
ltibia 11.655503200514293
lfoot -8.810990319950438 -4.839479212692244
ltoes -6.395900510716528
rfemur -26.5110355976796 5.322642383515507 17.706702590331844
rtibia 19.74134851402821
rfoot -8.903977698752376 -19.620397471759954
rtoes -4.20036863455007
lowerback 9.373873641403563 -1.3741778717188802 -3.877308746700585
upperback 0.13757189012937623 -2.276776192667128 1.0236355155286572
thorax -4.7850042981975 -1.074433234073432 3.6932912895372154
lowerneck -16.424937510954788 -2.788239534212 -3.603912653615381
upperneck 21.16516156880088 -3.3703689627733877 2.051452416379659
head 9.414290705653222 -1.6453835110496455 1.01794761327958
lclavicle 1.4591521224802832e-16 2.3616853417606315e-16
lhumerus -22.887999144249875 -0.21003294402312633 78.99421507250182
lradius 26.113936555237178
lwrist 6.925256917786928
lhand -29.658225556985403 20.462898810120123
lfingers 7.12502
lthumb -2.9201936143239107 50.467123840962216
rclavicle 1.4695606142147296e-16 2.3698727699684596e-16
rhumerus -28.962381909112526 -19.755901863046322 -75.55048198819625
rradius 22.528833679958442
rwrist 8.167211285108408
rhand -17.604948729845017 23.125554656740395
rfingers 7.12502
rthumb 8.549140463894522 -7.015310544911585
73
root 0.5407980330736912 17.666025013713988 42.35054203942056 -1.8381817424730018 -0.3994544486702216 1.82288200821013
lfemur 15.95518247480862 -4.395318899233965 -26.894482862399013
ltibia 14.60418591175208
lfoot -6.278793517029209 -7.721105074212965
ltoes -8.338264087338569
rfemur -26.639807295361994 4.802158669465594 18.809032418809085
rtibia 19.89950207443637
rfoot -8.795338824859646 -14.079545461916569
rtoes -5.259059362748637
lowerback 9.128176323549116 -1.5681084673967596 -3.702412864843436
upperback 0.13892623718994498 -2.545633166504737 1.278462036272173
thorax -4.569019517759855 -1.220128292752587 3.867592899862203
lowerneck -16.48376138622671 -2.7388462077022906 -3.6165968889061295
upperneck 21.311050934468827 -3.2745044279614137 1.7158924149834065
head 9.468324882139388 -1.6201011643786778 0.9175742816861862
lclavicle 1.4702019008196966e-16 2.370193376192327e-16
lhumerus -22.939981053055817 0.10135345048766364 79.0633505901722
lradius 27.49882227044162
lwrist 6.814771773272504
lhand -30.102395336419132 20.25799004528081
lfingers 7.12502
lthumb -3.4548111565057678 49.92828005969335
rclavicle 1.479386061297888e-16 2.3774290829242775e-16
rhumerus -29.71563196909775 -21.597543529597132 -74.1926036841974
rradius 20.551340527252982
rwrist 11.484495862186147
rhand -17.79005729160194 23.03734927066765
rfingers 7.12502
rthumb 8.361033314549864 -7.241482171537048
74
root 0.4634465427340996 17.64072704635701 43.07144965476506 -2.1195730096573855 -0.5626997565658465 1.0818242500822566
lfemur 15.6147181419377 -5.32254599384169 -25.7162716757068
ltibia 21.300400747835035
lfoot -3.3631637456160037 -11.14287463081464
ltoes -10.717730785444463
rfemur -26.31437964171701 3.7828481201946063 20.86540909254416
rtibia 24.076988229819484
rfoot -6.289574321906992 -9.405448326037067
rtoes -2.3850240919425736
lowerback 9.106737670509245 -1.7229668995915173 -2.9602865343460714
upperback 0.0942638331555704 -2.616565747356635 1.5953255615315003
thorax -4.579468231862326 -1.2463836662983983 3.869692625552788
lowerneck -16.44548063445433 -2.683756786178585 -3.602276162437148
upperneck 21.453640763067703 -3.1583215785115577 1.3866582860610213
head 9.481678745941473 -1.5820674064841658 0.8418651000703811
lclavicle 1.4788080887249733e-16 2.3767890088564216e-16
lhumerus -23.988663717183584 1.066047645206659 79.23902684772894
lradius 28.60353107420827
lwrist 6.7605234008735975
lhand -30.033261772130196 20.173352042415818
lfingers 7.12502
lthumb -3.4708898597283593 49.89027249778539
rclavicle 1.4725639896843944e-16 2.3721836262302753e-16
rhumerus -30.7989551858845 -23.67500265961599 -72.50274396918093
rradius 18.919800316745135
rwrist 14.587142108584967
rhand -17.893744880132658 22.822971072855346
rfingers 7.12502
rthumb 8.251909267051953 -7.414021112870599
